<svg width="59" height="59" viewBox="0 0 59 59" fill="none" xmlns="http://www.w3.org/2000/svg">
<circle cx="29.5" cy="29.5" r="20.5" fill="#F6C944" stroke="black" stroke-width="4"/>
<circle cx="29.5" cy="29.5" r="27" stroke="white" stroke-width="5" stroke-dasharray="8 8"/>
<path d="M19.3892 35.2792L25.4667 33.115L22.9248 31.5216L30.9898 18.6556L29.2952 17.5934L21.2302 30.4594L18.6883 28.866L19.3892 35.2792ZM31.6907 25.0688L39.3163 29.8489L37.9721 31.9932L30.3465 27.2131L31.6907 25.0688ZM29.0023 29.3575L34.9334 33.0753L33.5892 35.2197L27.6582 31.5018L29.0023 29.3575ZM34.379 20.7801L43.6992 26.6225L42.3551 28.7668L33.0348 22.9244L34.379 20.7801ZM26.314 33.6461L30.5505 36.3018L29.2063 38.4461L24.9698 35.7905L26.314 33.6461Z" fill="black"/>
</svg>
